<?xml version="1.0" encoding="UTF-8"?><svg xmlns="http://www.w3.org/2000/svg" xmlns:xlink="http://www.w3.org/1999/xlink" contentScriptType="text/ecmascript" width="375pt" zoomAndPan="magnify" contentStyleType="text/css" viewBox="0 0 375 262.499992" height="262.499992pt" preserveAspectRatio="xMidYMid meet" version="1.2"><defs><clipPath xml:id="clip1" id="clip1"><path d="M 101.691406 34 L 272.925781 34 L 272.925781 227 L 101.691406 227 Z M 101.691406 34 "/></clipPath><clipPath xml:id="clip2" id="clip2"><path d="M 187 82 L 272.925781 82 L 272.925781 179 L 187 179 Z M 187 82 "/></clipPath></defs><g xml:id="surface1" id="surface1"><g clip-rule="nonzero" clip-path="url(#clip1)"><path style=" stroke:none;fill-rule:nonzero;fill:rgb(36.079407%,55.288696%,73.728943%);fill-opacity:1;" d="M 272.664062 91.210938 C 272.664062 87.988281 271.96875 85.144531 270.570312 82.699219 C 269.203125 80.296875 267.152344 78.28125 264.398438 76.6875 C 241.667969 63.601562 218.917969 50.550781 196.191406 37.449219 C 190.066406 33.917969 184.128906 34.046875 178.050781 37.628906 C 169.003906 42.957031 123.703125 68.875 110.203125 76.683594 C 104.648438 79.894531 101.945312 84.8125 101.941406 91.207031 C 101.933594 117.53125 101.941406 143.851562 101.933594 170.179688 C 101.933594 173.328125 102.59375 176.117188 103.929688 178.523438 C 105.300781 181 107.382812 183.074219 110.199219 184.703125 C 123.699219 192.507812 168.996094 218.417969 178.046875 223.75 C 184.132812 227.339844 190.070312 227.464844 196.195312 223.929688 C 218.921875 210.828125 241.675781 197.777344 264.410156 184.695312 C 267.226562 183.066406 269.304688 180.992188 270.679688 178.515625 C 272.011719 176.117188 272.671875 173.320312 272.671875 170.164062 C 272.671875 170.164062 272.671875 117.539062 272.664062 91.214844 "/></g><path style=" stroke:none;fill-rule:nonzero;fill:rgb(10.198975%,27.449036%,45.489502%);fill-opacity:1;" d="M 187.5625 130.433594 L 103.929688 178.523438 C 105.300781 181 107.382812 183.074219 110.199219 184.699219 C 123.699219 192.507812 168.996094 218.417969 178.046875 223.75 C 184.132812 227.339844 190.070312 227.464844 196.195312 223.929688 C 218.921875 210.828125 241.675781 197.777344 264.410156 184.695312 C 267.226562 183.066406 269.304688 180.992188 270.679688 178.515625 L 187.566406 130.433594 "/><path style=" stroke:none;fill-rule:nonzero;fill:rgb(10.198975%,27.449036%,45.489502%);fill-opacity:1;" d="M 162.792969 144.679688 C 167.660156 153.164062 176.808594 158.890625 187.300781 158.890625 C 197.863281 158.890625 207.0625 153.089844 211.90625 144.519531 L 187.5625 130.433594 L 162.792969 144.679688 "/><g clip-rule="nonzero" clip-path="url(#clip2)"><path style=" stroke:none;fill-rule:nonzero;fill:rgb(10.5896%,34.899902%,55.688477%);fill-opacity:1;" d="M 272.664062 91.210938 C 272.664062 87.988281 271.96875 85.144531 270.570312 82.699219 L 187.5625 130.433594 L 270.679688 178.515625 C 272.007812 176.113281 272.667969 173.320312 272.667969 170.164062 C 272.667969 170.164062 272.667969 117.539062 272.664062 91.210938 "/></g><path style=" stroke:none;fill-rule:nonzero;fill:rgb(100%,100%,100%);fill-opacity:1;" d="M 268.09375 133.871094 L 261.601562 133.871094 L 261.601562 140.355469 L 255.101562 140.355469 L 255.101562 133.871094 L 248.605469 133.871094 L 248.605469 127.386719 L 255.101562 127.386719 L 255.101562 120.902344 L 261.601562 120.902344 L 261.601562 127.386719 L 268.09375 127.386719 L 268.09375 133.871094 "/><path style=" stroke:none;fill-rule:nonzero;fill:rgb(100%,100%,100%);fill-opacity:1;" d="M 244.390625 133.871094 L 237.898438 133.871094 L 237.898438 140.355469 L 231.40625 140.355469 L 231.40625 133.871094 L 224.910156 133.871094 L 224.910156 127.386719 L 231.40625 127.386719 L 231.40625 120.902344 L 237.898438 120.902344 L 237.898438 127.386719 L 244.390625 127.386719 L 244.390625 133.871094 "/><path style=" stroke:none;fill-rule:nonzero;fill:rgb(100%,100%,100%);fill-opacity:1;" d="M 211.90625 144.519531 C 207.0625 153.089844 197.863281 158.890625 187.300781 158.890625 C 176.808594 158.890625 167.660156 153.164062 162.792969 144.679688 C 160.429688 140.554688 159.070312 135.785156 159.070312 130.6875 C 159.070312 115.117188 171.710938 102.492188 187.300781 102.492188 C 197.730469 102.492188 206.828125 108.144531 211.71875 116.542969 L 236.394531 102.355469 C 226.589844 85.441406 208.277344 74.066406 187.300781 74.066406 C 155.988281 74.066406 130.601562 99.417969 130.601562 130.6875 C 130.601562 140.949219 133.335938 150.570312 138.113281 158.867188 C 147.894531 175.867188 166.261719 187.316406 187.300781 187.316406 C 208.382812 187.316406 226.777344 175.820312 236.542969 158.777344 L 211.90625 144.519531 "/></g></svg>