<?xml version="1.0" encoding="UTF-8"?><svg xmlns="http://www.w3.org/2000/svg" xmlns:xlink="http://www.w3.org/1999/xlink" contentScriptType="text/ecmascript" width="375pt" zoomAndPan="magnify" contentStyleType="text/css" viewBox="0 0 375 149.999998" height="149.999998pt" preserveAspectRatio="xMidYMid meet" version="1.2"><defs><g/><clipPath xml:id="clip1" id="clip1"><path d="M 31.664062 13.472656 L 141.914062 13.472656 L 141.914062 136.425781 L 31.664062 136.425781 Z M 31.664062 13.472656 "/></clipPath></defs><g xml:id="surface1" id="surface1"><g clip-rule="nonzero" clip-path="url(#clip1)"><path style=" stroke:none;fill-rule:nonzero;fill:rgb(0.779724%,46.669006%,74.119568%);fill-opacity:1;" d="M 142.03125 13.472656 L 31.679688 13.472656 L 41.414062 123.484375 L 86.855469 136.425781 L 132.292969 123.484375 Z M 142.03125 13.472656 "/></g><path style=" stroke:none;fill-rule:nonzero;fill:rgb(1.179504%,60.778809%,89.7995%);fill-opacity:1;" d="M 86.855469 23.179688 L 86.855469 126.398438 L 123.207031 116.042969 L 131.320312 23.179688 Z M 86.855469 23.179688 "/><path style=" stroke:none;fill-rule:nonzero;fill:rgb(100%,100%,100%);fill-opacity:1;" d="M 116.390625 39.359375 L 86.855469 39.359375 L 86.855469 52.300781 L 102.757812 52.300781 L 101.785156 65.242188 L 86.855469 65.242188 L 86.855469 78.1875 L 101.136719 78.1875 L 100.160156 92.746094 L 86.855469 97.277344 L 86.855469 110.867188 L 112.496094 102.453125 L 114.765625 65.242188 Z M 116.390625 39.359375 "/><path style=" stroke:none;fill-rule:nonzero;fill:rgb(93.328857%,93.328857%,93.328857%);fill-opacity:1;" d="M 86.855469 39.359375 L 86.855469 52.300781 L 57.96875 52.300781 L 56.992188 39.359375 Z M 71.925781 65.242188 L 72.574219 78.1875 L 86.855469 78.1875 L 86.855469 65.242188 Z M 73.222656 84.65625 L 60.238281 84.65625 L 61.214844 102.453125 L 86.855469 110.867188 L 86.855469 97.277344 L 73.546875 92.746094 Z M 73.222656 84.65625 "/><g style="fill:currentColor;fill-opacity:1;"><g transform="translate(167.172968, 99.036427)"><path style="stroke:none;" d="M 30.800781 1.820312 C 47.109375 1.820312 58.25 -7.574219 59.414062 -22.425781 L 41.867188 -24.246094 C 40.921875 -18.128906 36.695312 -14.199219 31.089844 -14.199219 C 24.757812 -14.199219 20.75 -18.859375 20.75 -26.210938 C 20.75 -33.566406 24.246094 -38.226562 29.707031 -38.226562 C 34.660156 -38.226562 37.351562 -34.875 38.371094 -29.5625 L 55.480469 -33.855469 C 54.097656 -46.308594 44.050781 -54.246094 29.632812 -54.246094 C 12.597656 -54.246094 1.820312 -43.324219 1.820312 -26.210938 C 1.820312 -9.101562 13.105469 1.820312 30.800781 1.820312 Z M 30.800781 1.820312 "/></g></g><g style="fill:currentColor;fill-opacity:1;"><g transform="translate(227.673786, 99.036427)"><path style="stroke:none;" d="M 26.722656 1.820312 C 41.867188 1.820312 53.007812 -4.367188 53.007812 -16.746094 C 53.007812 -26.648438 47.109375 -31.671875 33.421875 -33.421875 L 27.085938 -34.222656 C 22.71875 -34.804688 20.824219 -35.824219 20.824219 -37.644531 C 20.824219 -39.753906 22.863281 -41.136719 25.992188 -41.136719 C 29.5625 -41.136719 32.328125 -39.027344 32.839844 -35.3125 L 49.4375 -38.808594 C 48.273438 -48.347656 38.664062 -54.246094 26.429688 -54.246094 C 12.816406 -54.246094 2.402344 -47.617188 2.402344 -36.40625 C 2.402344 -26.867188 8.300781 -21.84375 22.0625 -19.660156 L 28.25 -18.785156 C 32.839844 -18.058594 34.804688 -16.964844 34.804688 -15.070312 C 34.804688 -12.742188 32.035156 -11.285156 27.742188 -11.285156 C 22.9375 -11.285156 19.441406 -13.761719 18.566406 -18.203125 L 1.746094 -15 C 2.914062 -3.132812 12.886719 1.820312 26.722656 1.820312 Z M 26.722656 1.820312 "/></g></g><g style="fill:currentColor;fill-opacity:1;"><g transform="translate(281.403761, 99.036427)"><path style="stroke:none;" d="M 26.722656 1.820312 C 41.867188 1.820312 53.007812 -4.367188 53.007812 -16.746094 C 53.007812 -26.648438 47.109375 -31.671875 33.421875 -33.421875 L 27.085938 -34.222656 C 22.71875 -34.804688 20.824219 -35.824219 20.824219 -37.644531 C 20.824219 -39.753906 22.863281 -41.136719 25.992188 -41.136719 C 29.5625 -41.136719 32.328125 -39.027344 32.839844 -35.3125 L 49.4375 -38.808594 C 48.273438 -48.347656 38.664062 -54.246094 26.429688 -54.246094 C 12.816406 -54.246094 2.402344 -47.617188 2.402344 -36.40625 C 2.402344 -26.867188 8.300781 -21.84375 22.0625 -19.660156 L 28.25 -18.785156 C 32.839844 -18.058594 34.804688 -16.964844 34.804688 -15.070312 C 34.804688 -12.742188 32.035156 -11.285156 27.742188 -11.285156 C 22.9375 -11.285156 19.441406 -13.761719 18.566406 -18.203125 L 1.746094 -15 C 2.914062 -3.132812 12.886719 1.820312 26.722656 1.820312 Z M 26.722656 1.820312 "/></g></g></g></svg>