<?xml version="1.0" encoding="UTF-8"?><svg xmlns="http://www.w3.org/2000/svg" xmlns:xlink="http://www.w3.org/1999/xlink" contentScriptType="text/ecmascript" width="375pt" zoomAndPan="magnify" contentStyleType="text/css" viewBox="0 0 375 149.999998" height="149.999998pt" preserveAspectRatio="xMidYMid meet" version="1.2"><defs><clipPath xml:id="clip1" id="clip1"><path d="M 210 29 L 320.65625 29 L 320.65625 119 L 210 119 Z M 210 29 "/></clipPath><clipPath xml:id="clip2" id="clip2"><path d="M 55 14.261719 L 175 14.261719 L 175 135 L 55 135 Z M 55 14.261719 "/></clipPath></defs><g xml:id="surface1" id="surface1"><g clip-rule="nonzero" clip-path="url(#clip1)"><path style=" stroke:none;fill-rule:nonzero;fill:currentColor;fill-opacity:1;" d="M 232.976562 61.101562 C 228.175781 61.101562 224.59375 63.457031 224.59375 69.132812 C 224.59375 73.371094 226.953125 76.378906 232.714844 76.378906 C 237.601562 76.378906 240.917969 73.496094 240.917969 68.957031 C 240.917969 63.804688 237.953125 61.101562 232.976562 61.101562 Z M 223.375 101.171875 C 222.238281 102.566406 221.105469 104.050781 221.105469 105.757812 C 221.105469 109.246094 225.550781 110.300781 231.667969 110.300781 C 236.730469 110.300781 243.628906 109.945312 243.628906 105.234375 C 243.628906 102.441406 240.308594 102.265625 236.113281 102.003906 L 223.40625 101.132812 Z M 249.214844 61.359375 C 250.785156 63.375 252.449219 66.160156 252.449219 70.179688 C 252.449219 79.863281 244.820312 85.539062 233.851562 85.539062 C 231.027344 85.539062 228.558594 85.1875 226.953125 84.753906 L 224.074219 89.34375 L 232.628906 89.867188 C 247.738281 90.828125 256.636719 91.265625 256.636719 102.871094 C 256.636719 112.910156 247.824219 118.574219 232.628906 118.574219 C 216.828125 118.574219 210.808594 114.558594 210.808594 107.632812 C 210.808594 103.707031 212.558594 101.609375 215.609375 98.726562 C 212.726562 97.511719 211.769531 95.328125 211.769531 92.972656 C 211.769531 91.050781 212.726562 89.300781 214.300781 87.679688 L 219.710938 82.441406 C 215.433594 80.351562 212.199219 75.804688 212.199219 69.378906 C 212.199219 59.339844 218.835938 52.449219 232.195312 52.449219 C 235.953125 52.449219 238.222656 52.796875 240.230469 53.324219 L 257.253906 53.324219 L 257.253906 60.742188 L 249.21875 61.351562 M 272.609375 45.496094 C 267.667969 45.496094 264.753906 42.617188 264.753906 37.636719 C 264.753906 32.652344 267.632812 29.953125 272.609375 29.953125 C 277.671875 29.953125 280.554688 32.664062 280.554688 37.636719 C 280.554688 42.605469 277.671875 45.496094 272.613281 45.496094 Z M 261.3125 97.957031 L 261.3125 91.066406 L 265.769531 90.457031 C 266.988281 90.28125 267.167969 90.019531 267.167969 88.707031 L 267.167969 63.050781 C 267.167969 62.089844 266.90625 61.480469 266.027344 61.214844 L 261.3125 59.554688 L 262.273438 52.492188 L 280.347656 52.492188 L 280.347656 88.71875 C 280.347656 90.117188 280.433594 90.289062 281.746094 90.46875 L 286.195312 91.082031 L 286.195312 97.964844 L 261.304688 97.964844 M 320.753906 94.578125 C 316.996094 96.410156 311.496094 98.105469 306.519531 98.105469 C 296.125 98.105469 292.199219 93.921875 292.199219 84.050781 L 292.199219 61.179688 C 292.199219 60.65625 292.199219 60.304688 291.496094 60.304688 L 285.421875 60.304688 L 285.421875 52.539062 C 293.105469 51.691406 296.164062 47.824219 297.125 38.308594 L 305.417969 38.308594 L 305.417969 50.703125 C 305.417969 51.308594 305.417969 51.578125 306.117188 51.578125 L 318.429688 51.578125 L 318.429688 60.304688 L 305.382812 60.304688 L 305.382812 81.128906 C 305.382812 86.28125 306.609375 88.289062 311.316406 88.289062 C 313.761719 88.289062 316.257812 87.679688 318.386719 86.894531 L 320.746094 94.574219 "/></g><g clip-rule="nonzero" clip-path="url(#clip2)"><path style=" stroke:none;fill-rule:nonzero;fill:rgb(94.119263%,23.529053%,18.03894%);fill-opacity:1;" d="M 172.652344 69.515625 L 120.316406 17.191406 C 117.304688 14.179688 112.414062 14.179688 109.398438 17.191406 L 98.535156 28.058594 L 112.316406 41.835938 C 115.523438 40.753906 119.195312 41.484375 121.742188 44.03125 C 122.351562 44.640625 122.863281 45.320312 123.277344 46.074219 C 123.695312 46.828125 124 47.625 124.191406 48.460938 C 124.382812 49.300781 124.457031 50.148438 124.410156 51.007812 C 124.363281 51.867188 124.199219 52.707031 123.917969 53.519531 L 137.203125 66.800781 C 140.382812 65.695312 144.125 66.414062 146.691406 68.976562 C 147.265625 69.546875 147.75 70.179688 148.15625 70.878906 C 148.558594 71.574219 148.867188 72.3125 149.074219 73.09375 C 149.285156 73.871094 149.386719 74.664062 149.386719 75.472656 C 149.386719 76.277344 149.285156 77.070312 149.074219 77.847656 C 148.867188 78.628906 148.558594 79.367188 148.15625 80.066406 C 147.753906 80.761719 147.265625 81.398438 146.695312 81.96875 C 146.125 82.535156 145.488281 83.023438 144.789062 83.425781 C 144.089844 83.828125 143.351562 84.132812 142.574219 84.339844 C 141.792969 84.550781 141 84.652344 140.195312 84.652344 C 139.390625 84.652344 138.597656 84.550781 137.820312 84.339844 C 137.039062 84.132812 136.300781 83.824219 135.601562 83.421875 C 134.90625 83.019531 134.273438 82.53125 133.703125 81.960938 C 131.003906 79.261719 130.339844 75.296875 131.707031 71.976562 L 119.347656 59.621094 L 119.347656 92.222656 C 120.195312 92.65625 121.050781 93.230469 121.777344 93.957031 C 125.363281 97.542969 125.363281 103.355469 121.777344 106.949219 C 121.351562 107.375 120.886719 107.753906 120.386719 108.089844 C 119.886719 108.425781 119.355469 108.707031 118.800781 108.941406 C 118.242188 109.171875 117.667969 109.34375 117.074219 109.460938 C 116.484375 109.582031 115.886719 109.640625 115.285156 109.640625 C 114.679688 109.640625 114.082031 109.582031 113.492188 109.460938 C 112.898438 109.34375 112.324219 109.171875 111.769531 108.941406 C 111.210938 108.707031 110.683594 108.425781 110.179688 108.089844 C 109.679688 107.753906 109.214844 107.375 108.789062 106.949219 C 105.203125 103.351562 105.203125 97.542969 108.789062 93.957031 C 109.660156 93.089844 110.660156 92.421875 111.796875 91.953125 L 111.796875 59.054688 C 110.738281 58.605469 109.679688 57.945312 108.789062 57.078125 C 108.144531 56.433594 107.609375 55.710938 107.179688 54.90625 C 106.75 54.105469 106.449219 53.253906 106.273438 52.359375 C 106.097656 51.46875 106.054688 50.566406 106.144531 49.660156 C 106.238281 48.753906 106.460938 47.882812 106.8125 47.039062 L 93.222656 33.449219 L 57.3125 69.269531 C 56.957031 69.628906 56.636719 70.019531 56.355469 70.441406 C 56.074219 70.863281 55.839844 71.308594 55.644531 71.777344 C 55.453125 72.242188 55.304688 72.726562 55.207031 73.222656 C 55.109375 73.71875 55.058594 74.222656 55.058594 74.726562 C 55.058594 75.234375 55.109375 75.738281 55.207031 76.234375 C 55.304688 76.730469 55.453125 77.210938 55.644531 77.679688 C 55.839844 78.148438 56.074219 78.59375 56.355469 79.015625 C 56.636719 79.4375 56.957031 79.828125 57.3125 80.1875 L 109.652344 132.511719 C 112.664062 135.523438 117.554688 135.523438 120.570312 132.511719 L 172.652344 80.433594 C 173.011719 80.074219 173.328125 79.683594 173.609375 79.261719 C 173.890625 78.839844 174.128906 78.394531 174.320312 77.925781 C 174.515625 77.457031 174.660156 76.976562 174.757812 76.480469 C 174.859375 75.980469 174.90625 75.480469 174.90625 74.972656 C 174.90625 74.46875 174.859375 73.964844 174.757812 73.46875 C 174.660156 72.972656 174.515625 72.488281 174.320312 72.019531 C 174.128906 71.554688 173.890625 71.109375 173.609375 70.6875 C 173.328125 70.265625 173.011719 69.875 172.652344 69.515625 "/></g></g></svg>