<?xml version="1.0" encoding="UTF-8"?><svg xmlns="http://www.w3.org/2000/svg" xmlns:xlink="http://www.w3.org/1999/xlink" contentScriptType="text/ecmascript" width="375pt" zoomAndPan="magnify" contentStyleType="text/css" viewBox="0 0 375 149.999998" height="149.999998pt" preserveAspectRatio="xMidYMid meet" version="1.2"><defs><g/><clipPath xml:id="clip1" id="clip1"><path d="M 18.894531 13.472656 L 126.894531 13.472656 L 126.894531 136.425781 L 18.894531 136.425781 Z M 18.894531 13.472656 "/></clipPath></defs><g xml:id="surface1" id="surface1"><g clip-rule="nonzero" clip-path="url(#clip1)"><path style=" stroke:none;fill-rule:nonzero;fill:rgb(89.408875%,30.198669%,14.898682%);fill-opacity:1;" d="M 28.714844 123.867188 L 18.863281 13.816406 L 127.089844 13.816406 L 117.234375 123.851562 L 72.910156 136.085938 Z M 28.714844 123.867188 "/></g><path style=" stroke:none;fill-rule:nonzero;fill:rgb(94.509888%,39.608765%,16.079712%);fill-opacity:1;" d="M 108.789062 116.84375 L 117.21875 22.816406 L 72.976562 22.816406 L 72.976562 126.738281 Z M 108.789062 116.84375 "/><path style=" stroke:none;fill-rule:nonzero;fill:rgb(92.158508%,92.158508%,92.158508%);fill-opacity:1;" d="M 72.929688 36.3125 L 39 36.3125 L 42.65625 77.128906 L 72.976562 77.128906 L 72.976562 63.632812 L 55.050781 63.632812 L 53.8125 49.8125 L 72.976562 49.8125 L 72.976562 36.3125 Z M 72.976562 98.640625 L 72.917969 98.65625 L 57.832031 94.597656 L 56.871094 83.835938 L 43.261719 83.835938 L 45.160156 105.027344 L 72.914062 112.667969 L 72.976562 112.648438 Z M 72.976562 98.640625 "/><path style=" stroke:none;fill-rule:nonzero;fill:rgb(100%,100%,100%);fill-opacity:1;" d="M 72.929688 77.128906 L 89.617188 77.128906 L 88.082031 94.628906 L 72.96875 98.691406 L 72.96875 112.734375 L 100.746094 105.066406 L 104.46875 63.625 L 72.976562 63.625 Z M 106.546875 39.933594 L 106.867188 36.3125 L 72.921875 36.3125 L 72.921875 49.808594 L 105.648438 49.808594 L 105.917969 46.773438 Z M 106.546875 39.933594 "/><g style="fill:currentColor;fill-opacity:1;"><g transform="translate(137.577038, 99.036427)"><path style="stroke:none;" d="M 3.640625 0 L 22.570312 0 L 22.570312 -19.660156 L 36.40625 -19.660156 L 36.40625 0 L 55.335938 0 L 55.335938 -52.425781 L 36.40625 -52.425781 L 36.40625 -34.222656 L 22.570312 -34.222656 L 22.570312 -52.425781 L 3.640625 -52.425781 Z M 3.640625 0 "/></g></g><g style="fill:currentColor;fill-opacity:1;"><g transform="translate(196.548955, 99.036427)"><path style="stroke:none;" d="M 15.289062 0 L 34.222656 0 L 34.222656 -36.40625 L 48.054688 -36.40625 L 48.054688 -52.425781 L 1.457031 -52.425781 L 1.457031 -36.40625 L 15.289062 -36.40625 Z M 15.289062 0 "/></g></g><g style="fill:currentColor;fill-opacity:1;"><g transform="translate(246.056252, 99.036427)"><path style="stroke:none;" d="M 3.640625 0 L 20.386719 0 L 20.386719 -30.144531 L 20.53125 -30.144531 L 32.035156 0 L 45.871094 0 L 57.375 -30.144531 L 57.519531 -30.144531 L 57.519531 0 L 74.269531 0 L 74.269531 -52.425781 L 50.824219 -52.425781 L 39.101562 -21.261719 L 38.953125 -21.261719 L 27.378906 -52.425781 L 3.640625 -52.425781 Z M 3.640625 0 "/></g></g><g style="fill:currentColor;fill-opacity:1;"><g transform="translate(323.957423, 99.036427)"><path style="stroke:none;" d="M 3.640625 0 L 39.316406 0 L 39.316406 -16.019531 L 22.570312 -16.019531 L 22.570312 -52.425781 L 3.640625 -52.425781 Z M 3.640625 0 "/></g></g></g></svg>