<?xml version="1.0" encoding="UTF-8"?><svg xmlns="http://www.w3.org/2000/svg" xmlns:xlink="http://www.w3.org/1999/xlink" contentScriptType="text/ecmascript" width="375pt" zoomAndPan="magnify" contentStyleType="text/css" viewBox="0 0 375 149.999998" height="149.999998pt" preserveAspectRatio="xMidYMid meet" version="1.2"><defs><clipPath xml:id="clip1" id="clip1"><path d="M 77 22.078125 L 115 22.078125 L 115 83 L 77 83 Z M 77 22.078125 "/></clipPath><clipPath xml:id="clip2" id="clip2"><path d="M 154 33 L 332.074219 33 L 332.074219 127.746094 L 154 127.746094 Z M 154 33 "/></clipPath></defs><g xml:id="surface1" id="surface1"><path style=" stroke:none;fill-rule:nonzero;fill:rgb(30.589294%,47.059631%,58.81958%);fill-opacity:1;" d="M 77.359375 102.484375 C 77.359375 102.484375 73.375 104.910156 80.132812 105.605469 C 88.28125 106.640625 92.613281 106.46875 101.628906 104.738281 C 103.445312 105.851562 105.351562 106.773438 107.347656 107.511719 C 87.066406 116.171875 61.410156 106.992188 77.359375 102.488281 Z M 74.761719 91.226562 C 74.761719 91.226562 70.425781 94.515625 77.1875 95.207031 C 86.03125 96.074219 92.960938 96.246094 104.921875 93.824219 C 106.105469 95.023438 107.488281 95.886719 109.082031 96.421875 C 84.644531 103.699219 57.253906 97.113281 74.757812 91.226562 Z M 122.601562 110.972656 C 122.601562 110.972656 125.550781 113.398438 119.308594 115.304688 C 107.695312 118.769531 70.597656 119.808594 60.199219 115.304688 C 56.558594 113.746094 63.492188 111.492188 65.746094 111.148438 C 68 110.628906 69.214844 110.628906 69.214844 110.628906 C 65.226562 107.859375 42.691406 116.34375 57.75 118.769531 C 99.179688 125.527344 133.328125 115.828125 122.582031 110.976562 Z M 79.269531 79.449219 C 79.269531 79.449219 60.375 83.953125 72.507812 85.507812 C 77.707031 86.199219 87.933594 86.027344 97.464844 85.335938 C 105.269531 84.644531 113.066406 83.257812 113.066406 83.257812 C 113.066406 83.257812 110.292969 84.46875 108.386719 85.683594 C 89.144531 90.703125 52.222656 88.453125 62.792969 83.257812 C 71.808594 78.925781 79.261719 79.449219 79.261719 79.449219 Z M 113.074219 98.328125 C 132.488281 88.277344 123.476562 78.582031 117.234375 79.792969 C 115.675781 80.140625 114.980469 80.484375 114.980469 80.484375 C 114.980469 80.484375 115.5 79.449219 116.710938 79.101562 C 129.015625 74.769531 138.726562 92.089844 112.726562 98.847656 C 112.726562 98.847656 112.898438 98.675781 113.070312 98.328125 Z M 81.175781 125.695312 C 99.898438 126.90625 128.5 125.003906 129.191406 116.167969 C 129.191406 116.167969 127.804688 119.632812 113.761719 122.230469 C 97.816406 125.175781 78.078125 124.828125 66.441406 122.921875 C 66.441406 122.921875 68.867188 125 81.175781 125.691406 Z M 81.175781 125.695312 "/><g clip-rule="nonzero" clip-path="url(#clip1)"><path style=" stroke:none;fill-rule:nonzero;fill:rgb(96.078491%,50.979614%,9.799194%);fill-opacity:1;" d="M 101.28125 22.289062 C 101.28125 22.289062 112.03125 33.203125 91.050781 49.65625 C 74.238281 62.988281 87.238281 70.613281 91.050781 79.273438 C 81.171875 70.441406 74.066406 62.644531 78.941406 55.371094 C 86.03125 44.632812 105.617188 39.4375 101.28125 22.289062 Z M 95.734375 72 C 100.761719 77.714844 94.351562 82.914062 94.351562 82.914062 C 94.351562 82.914062 107.175781 76.332031 101.285156 68.191406 C 95.910156 60.394531 91.75 56.585938 114.28125 43.59375 C 114.28125 43.59375 78.746094 52.429688 95.734375 72.003906 Z M 95.734375 72 "/></g><g clip-rule="nonzero" clip-path="url(#clip2)"><path style=" stroke:none;fill-rule:nonzero;fill:currentColor;fill-opacity:1;" d="M 229.292969 107.835938 L 229.292969 68.53125 C 229.292969 58.503906 223.671875 51.6875 209.625 51.6875 C 201.601562 51.6875 194.773438 53.691406 188.753906 56.09375 L 190.761719 63.3125 C 195.171875 61.710938 200.796875 60.105469 206.816406 60.105469 C 214.441406 60.105469 218.054688 63.3125 218.054688 69.730469 L 218.054688 74.945312 L 214.039062 74.945312 C 194.773438 74.945312 185.921875 82.160156 185.921875 93.792969 C 185.921875 103.417969 191.945312 109.035156 202.78125 109.035156 C 209.601562 109.035156 214.820312 105.824219 219.636719 101.816406 L 220.4375 107.832031 L 229.265625 107.832031 Z M 218.054688 95 C 214.039062 98.609375 209.625 100.617188 205.609375 100.617188 C 200.394531 100.617188 197.183594 97.40625 197.183594 91.792969 C 197.183594 86.175781 200.394531 82.167969 213.238281 82.167969 L 218.054688 82.167969 Z M 267.019531 107.835938 L 252.972656 107.835938 L 236.128906 52.890625 L 248.167969 52.890625 L 258.605469 86.578125 L 261.011719 96.605469 C 266.230469 82.171875 270.242188 67.328125 271.847656 52.894531 L 283.886719 52.894531 C 280.675781 70.9375 275.058594 90.589844 267.03125 107.835938 Z M 332.039062 107.835938 L 332.039062 68.53125 C 332.039062 58.503906 326.417969 51.6875 312.371094 51.6875 C 304.347656 51.6875 297.519531 53.691406 291.5 56.09375 L 293.105469 63.3125 C 297.921875 61.710938 303.539062 60.105469 309.558594 60.105469 C 317.183594 60.105469 320.796875 63.3125 320.796875 69.730469 L 320.796875 74.945312 L 316.78125 74.945312 C 297.519531 74.945312 288.667969 82.160156 288.667969 93.792969 C 288.667969 103.417969 294.285156 109.035156 305.121094 109.035156 C 312.34375 109.035156 317.5625 105.824219 322.378906 101.816406 L 323.179688 107.832031 L 332.011719 107.832031 Z M 320.800781 95 C 316.785156 98.609375 312.371094 100.617188 308.355469 100.617188 C 303.140625 100.617188 299.929688 97.40625 299.929688 91.792969 C 299.929688 86.175781 303.136719 82.167969 315.984375 82.167969 L 320.800781 82.167969 Z M 173.519531 117.054688 C 170.308594 121.871094 165.496094 125.480469 159.472656 127.484375 L 154.253906 121.066406 C 158.265625 118.660156 162.28125 115.050781 163.886719 111.839844 C 165.492188 109.03125 165.894531 105.023438 165.894531 95.800781 L 165.894531 33.230469 L 177.933594 33.230469 L 177.933594 94.996094 C 177.933594 107.429688 176.730469 112.242188 173.519531 117.050781 Z M 173.519531 117.054688 "/></g></g></svg>