<?xml version="1.0" encoding="UTF-8"?><svg xmlns="http://www.w3.org/2000/svg" xmlns:xlink="http://www.w3.org/1999/xlink" contentScriptType="text/ecmascript" width="375pt" zoomAndPan="magnify" contentStyleType="text/css" viewBox="0 0 375 135.000003" height="135.000003pt" preserveAspectRatio="xMidYMid meet" version="1.2"><defs><g/><clipPath xml:id="clip1" id="clip1"><path d="M 3.882812 23 L 102.117188 23 L 102.117188 110 L 3.882812 110 Z M 3.882812 23 "/></clipPath></defs><g xml:id="surface1" id="surface1"><path style=" stroke:none;fill-rule:nonzero;fill:rgb(32.548523%,75.689697%,87.059021%);fill-opacity:1;" d="M 61.789062 66.804688 C 61.789062 67.382812 61.730469 67.953125 61.621094 68.519531 C 61.507812 69.085938 61.339844 69.636719 61.121094 70.171875 C 60.898438 70.703125 60.628906 71.210938 60.308594 71.691406 C 59.988281 72.171875 59.621094 72.617188 59.214844 73.023438 C 58.804688 73.433594 58.363281 73.796875 57.882812 74.117188 C 57.402344 74.441406 56.894531 74.710938 56.363281 74.933594 C 55.828125 75.152344 55.28125 75.320312 54.714844 75.433594 C 54.148438 75.546875 53.578125 75.601562 53 75.601562 C 52.421875 75.601562 51.851562 75.546875 51.285156 75.433594 C 50.71875 75.320312 50.171875 75.152344 49.636719 74.933594 C 49.105469 74.710938 48.597656 74.441406 48.117188 74.117188 C 47.636719 73.796875 47.195312 73.433594 46.785156 73.023438 C 46.378906 72.617188 46.011719 72.171875 45.691406 71.691406 C 45.371094 71.210938 45.101562 70.703125 44.882812 70.171875 C 44.660156 69.636719 44.492188 69.085938 44.378906 68.519531 C 44.269531 67.953125 44.210938 67.382812 44.210938 66.804688 C 44.210938 66.226562 44.269531 65.65625 44.378906 65.089844 C 44.492188 64.523438 44.660156 63.972656 44.882812 63.4375 C 45.101562 62.90625 45.371094 62.398438 45.691406 61.917969 C 46.011719 61.4375 46.378906 60.992188 46.785156 60.585938 C 47.195312 60.175781 47.636719 59.8125 48.117188 59.492188 C 48.597656 59.167969 49.105469 58.898438 49.636719 58.679688 C 50.171875 58.457031 50.71875 58.289062 51.285156 58.175781 C 51.851562 58.066406 52.421875 58.007812 53 58.007812 C 53.578125 58.007812 54.148438 58.066406 54.714844 58.175781 C 55.28125 58.289062 55.828125 58.457031 56.363281 58.679688 C 56.894531 58.898438 57.402344 59.167969 57.882812 59.492188 C 58.363281 59.8125 58.804688 60.175781 59.214844 60.585938 C 59.621094 60.992188 59.988281 61.4375 60.308594 61.917969 C 60.628906 62.398438 60.898438 62.90625 61.121094 63.4375 C 61.339844 63.972656 61.507812 64.523438 61.621094 65.089844 C 61.730469 65.65625 61.789062 66.226562 61.789062 66.804688 Z M 61.789062 66.804688 "/><g clip-rule="nonzero" clip-path="url(#clip1)"><path style=" stroke:none;fill-rule:nonzero;fill:rgb(32.548523%,75.689697%,87.059021%);fill-opacity:1;" d="M 22.359375 82.382812 C 23.222656 82.667969 24.085938 82.960938 24.96875 83.210938 C 24.683594 84.363281 24.433594 85.496094 24.199219 86.667969 C 22.1875 97.328125 23.757812 105.777344 28.785156 108.679688 C 33.964844 111.671875 42.675781 108.601562 51.15625 101.167969 C 51.828125 100.574219 52.5 99.960938 53.171875 99.304688 C 54.015625 100.132812 54.898438 100.917969 55.78125 101.683594 C 63.992188 108.75 72.105469 111.613281 77.117188 108.714844 C 82.300781 105.71875 83.984375 96.636719 81.800781 85.574219 C 81.628906 84.730469 81.4375 83.867188 81.222656 82.980469 C 81.835938 82.808594 82.429688 82.617188 83.027344 82.421875 C 94.101562 78.757812 102.117188 72.820312 102.117188 66.730469 C 102.117188 60.914062 94.558594 55.265625 84.121094 51.675781 L 84.121094 51.671875 C 83.085938 51.324219 82.050781 50.996094 81.015625 50.691406 C 81.1875 49.980469 81.339844 49.269531 81.492188 48.558594 C 83.855469 37.113281 82.300781 27.917969 77.058594 24.882812 C 72.011719 21.980469 63.78125 24.996094 55.457031 32.257812 C 54.628906 32.964844 53.828125 33.714844 53.058594 34.464844 C 52.539062 33.964844 52 33.464844 51.464844 32.988281 C 42.734375 25.226562 33.988281 21.960938 28.746094 25.019531 C 23.722656 27.9375 22.222656 36.601562 24.335938 47.425781 C 24.546875 48.503906 24.777344 49.554688 25.042969 50.632812 C 23.816406 50.976562 22.609375 51.363281 21.472656 51.769531 C 11.230469 55.320312 3.882812 60.929688 3.882812 66.730469 C 3.882812 72.726562 11.707031 78.730469 22.359375 82.382812 Z M 48.453125 98.03125 C 45.289062 100.929688 41.621094 103.234375 37.628906 104.808594 C 35.5 105.828125 33.046875 105.925781 30.855469 105.058594 C 27.804688 103.292969 26.539062 96.511719 28.265625 87.390625 C 28.476562 86.316406 28.707031 85.238281 28.972656 84.179688 C 33.269531 85.101562 37.605469 85.738281 42 86.0625 C 44.535156 89.65625 47.316406 93.09375 50.289062 96.316406 C 49.675781 96.910156 49.0625 97.488281 48.449219 98.027344 Z M 72.820312 61.964844 C 71.917969 60.273438 70.996094 58.585938 70.035156 56.933594 C 69.09375 55.304688 68.117188 53.691406 67.101562 52.097656 C 70.191406 52.480469 73.148438 52.996094 75.910156 53.632812 C 75.027344 56.476562 73.988281 59.242188 72.820312 61.964844 Z M 72.855469 71.527344 C 74.085938 74.316406 75.160156 77.136719 76.097656 80.039062 C 73.121094 80.710938 70.113281 81.230469 67.082031 81.574219 C 68.117188 79.960938 69.09375 78.308594 70.054688 76.660156 C 71.035156 74.964844 71.957031 73.257812 72.855469 71.527344 Z M 70.636719 66.75 C 69.351562 69.402344 67.96875 72.011719 66.496094 74.585938 C 65.039062 77.136719 63.484375 79.617188 61.855469 82.074219 C 58.996094 82.289062 56.019531 82.382812 53.007812 82.382812 C 49.996094 82.382812 47.082031 82.289062 44.261719 82.113281 C 42.589844 79.675781 41.019531 77.175781 39.542969 74.621094 C 38.0625 72.070312 36.699219 69.476562 35.414062 66.824219 L 35.40625 66.824219 C 36.671875 64.175781 38.054688 61.582031 39.511719 59.027344 C 40.96875 56.476562 42.546875 53.996094 44.195312 51.558594 C 47.074219 51.347656 50.007812 51.230469 53.003906 51.230469 C 56 51.230469 58.953125 51.347656 61.8125 51.558594 C 63.441406 53.980469 64.996094 56.457031 66.476562 58.992188 C 67.953125 61.527344 69.332031 64.121094 70.636719 66.75 Z M 35.941406 56.972656 C 35 58.601562 34.078125 60.269531 33.214844 61.960938 C 32.007812 59.101562 30.988281 56.300781 30.144531 53.589844 C 32.90625 52.976562 35.839844 52.476562 38.890625 52.09375 C 37.878906 53.6875 36.882812 55.316406 35.941406 56.972656 Z M 33.21875 71.679688 C 34.101562 73.371094 35.003906 75.042969 35.960938 76.695312 C 36.9375 78.367188 37.9375 80.039062 38.992188 81.667969 C 36 81.339844 33.023438 80.863281 30.089844 80.226562 C 30.933594 77.460938 31.988281 74.601562 33.21875 71.679688 Z M 53.15625 93.359375 C 51.199219 91.25 49.242188 88.910156 47.34375 86.390625 C 49.183594 86.46875 51.085938 86.503906 53.003906 86.503906 C 54.980469 86.503906 56.917969 86.46875 58.835938 86.367188 C 57.074219 88.808594 55.171875 91.132812 53.15625 93.359375 Z M 78.234375 99.128906 C 78.058594 101.46875 76.910156 103.65625 75.066406 105.132812 C 72.015625 106.898438 65.511719 104.597656 58.488281 98.566406 C 57.683594 97.875 56.875 97.125 56.054688 96.359375 C 58.988281 93.113281 61.695312 89.675781 64.148438 86.066406 C 68.542969 85.699219 72.917969 85.027344 77.234375 84.050781 C 77.429688 84.835938 77.601562 85.625 77.757812 86.394531 C 78.699219 90.542969 78.847656 94.863281 78.234375 99.128906 Z M 79.902344 54.648438 C 80.898438 54.933594 81.855469 55.242188 82.777344 55.550781 C 91.71875 58.621094 97.992188 63.195312 97.992188 66.691406 C 97.992188 70.457031 91.296875 75.316406 81.722656 78.480469 C 81.1875 78.652344 80.648438 78.824219 80.09375 78.980469 C 78.75 74.792969 77.101562 70.707031 75.203125 66.726562 C 77.042969 62.808594 78.597656 58.773438 79.902344 54.648438 Z M 58.15625 35.367188 C 65.300781 29.148438 71.957031 26.710938 74.988281 28.457031 C 78.230469 30.320312 79.480469 37.847656 77.445312 47.738281 C 77.308594 48.386719 77.175781 49.023438 77.003906 49.660156 C 72.742188 48.699219 68.425781 48.007812 64.089844 47.621094 C 61.597656 44.046875 58.871094 40.628906 55.914062 37.421875 C 56.664062 36.710938 57.390625 36.039062 58.15625 35.367188 Z M 53.042969 40.363281 C 55.054688 42.550781 56.953125 44.851562 58.71875 47.234375 C 54.917969 47.0625 51.101562 47.0625 47.300781 47.234375 C 49.179688 44.757812 51.121094 42.457031 53.042969 40.363281 Z M 30.78125 28.589844 C 34.007812 26.710938 41.164062 29.398438 48.703125 36.082031 C 49.179688 36.503906 49.660156 36.964844 50.160156 37.425781 C 47.183594 40.628906 44.441406 44.046875 41.929688 47.617188 C 37.59375 48.003906 33.296875 48.675781 29.035156 49.617188 C 28.785156 48.636719 28.574219 47.636719 28.363281 46.636719 C 26.558594 37.34375 27.75 30.335938 30.78125 28.589844 Z M 22.820312 55.664062 C 23.914062 55.28125 25.027344 54.933594 26.140625 54.609375 C 27.445312 58.773438 29.019531 62.867188 30.839844 66.820312 C 28.996094 70.835938 27.40625 74.984375 26.082031 79.207031 L 26.078125 79.210938 C 25.273438 78.980469 24.488281 78.730469 23.699219 78.460938 C 19.617188 77.175781 14.96875 75.136719 11.613281 72.472656 C 9.675781 71.128906 8.371094 69.054688 8.007812 66.726562 C 8.007812 63.210938 14.070312 58.71875 22.820312 55.664062 Z M 22.820312 55.664062 "/></g><g style="fill:currentColor;fill-opacity:1;"><g transform="translate(108.325635, 88.197773)"><path style="stroke:none;" d="M 41.675781 1.035156 C 46.230469 1.035156 50.648438 -0.207031 53.476562 -2.277344 L 51.335938 -10.074219 C 50.648438 -9.730469 49.679688 -9.316406 48.785156 -9.316406 C 47.402344 -9.316406 46.574219 -10.417969 46.164062 -11.730469 L 45.335938 -14.492188 C 44.507812 -17.179688 43.472656 -18.769531 40.988281 -19.527344 L 40.988281 -19.597656 C 47.472656 -22.011719 51.0625 -26.910156 51.0625 -33.191406 C 51.0625 -43.816406 43.746094 -49.679688 30.566406 -49.679688 L 3.449219 -49.679688 L 3.449219 0 L 21.390625 0 L 21.390625 -16.558594 L 24.082031 -16.558594 C 26.496094 -16.558594 27.53125 -14.628906 28.222656 -12.421875 L 29.464844 -8.28125 C 31.257812 -2.414062 35.8125 1.035156 41.675781 1.035156 Z M 21.390625 -27.601562 L 21.390625 -37.261719 L 27.53125 -37.261719 C 31.121094 -37.261719 33.121094 -35.535156 33.121094 -32.429688 C 33.121094 -29.324219 31.121094 -27.601562 27.53125 -27.601562 Z M 21.390625 -27.601562 "/></g></g><g style="fill:currentColor;fill-opacity:1;"><g transform="translate(162.487015, 88.197773)"><path style="stroke:none;" d="M 3.449219 0 L 40.019531 0 L 40.019531 -13.800781 L 20.699219 -13.800781 L 20.699219 -19.320312 L 36.570312 -19.320312 L 36.570312 -31.050781 L 20.699219 -31.050781 L 20.699219 -35.882812 L 39.332031 -35.882812 L 39.332031 -49.679688 L 3.449219 -49.679688 Z M 3.449219 0 "/></g></g><g style="fill:currentColor;fill-opacity:1;"><g transform="translate(203.884254, 88.197773)"><path style="stroke:none;" d="M 0 0 L 18.5625 0 L 20.492188 -7.589844 L 34.707031 -7.589844 L 36.640625 0 L 55.339844 0 L 38.710938 -49.679688 L 16.628906 -49.679688 Z M 23.046875 -19.320312 L 27.601562 -36.640625 L 27.738281 -36.640625 L 32.15625 -19.320312 Z M 23.046875 -19.320312 "/></g></g><g style="fill:currentColor;fill-opacity:1;"><g transform="translate(259.218559, 88.197773)"><path style="stroke:none;" d="M 29.1875 1.726562 C 44.644531 1.726562 55.203125 -7.175781 56.304688 -21.253906 L 39.675781 -22.976562 C 38.777344 -17.179688 34.777344 -13.457031 29.464844 -13.457031 C 23.460938 -13.457031 19.664062 -17.871094 19.664062 -24.839844 C 19.664062 -31.808594 22.976562 -36.226562 28.152344 -36.226562 C 32.84375 -36.226562 35.398438 -33.050781 36.363281 -28.015625 L 52.578125 -32.085938 C 51.269531 -43.886719 41.746094 -51.40625 28.082031 -51.40625 C 11.9375 -51.40625 1.726562 -41.054688 1.726562 -24.839844 C 1.726562 -8.625 12.421875 1.726562 29.1875 1.726562 Z M 29.1875 1.726562 "/></g></g><g style="fill:currentColor;fill-opacity:1;"><g transform="translate(316.553723, 88.197773)"><path style="stroke:none;" d="M 14.492188 0 L 32.429688 0 L 32.429688 -34.5 L 45.542969 -34.5 L 45.542969 -49.679688 L 1.378906 -49.679688 L 1.378906 -34.5 L 14.492188 -34.5 Z M 14.492188 0 "/></g></g></g></svg>