<?xml version="1.0" encoding="UTF-8"?><svg xmlns="http://www.w3.org/2000/svg" xmlns:xlink="http://www.w3.org/1999/xlink" contentScriptType="text/ecmascript" width="375pt" zoomAndPan="magnify" contentStyleType="text/css" viewBox="0 0 375 262.499992" height="262.499992pt" preserveAspectRatio="xMidYMid meet" version="1.2"><defs><clipPath xml:id="clip1" id="clip1"><path d="M 63 38.128906 L 313 38.128906 L 313 221 L 63 221 Z M 63 38.128906 "/></clipPath></defs><g xml:id="surface1" id="surface1"><g clip-rule="nonzero" clip-path="url(#clip1)"><path style=" stroke:none;fill-rule:nonzero;fill:currentColor;fill-opacity:1;" d="M 180.589844 39.070312 C 168.851562 38.453125 155.65625 40.246094 142.746094 44.714844 C 122.234375 51.816406 100.046875 62.980469 84.09375 77.527344 C 65.140625 94.839844 62.101562 109.90625 63.347656 116.210938 C 67.78125 138.566406 99.394531 153.152344 112.042969 163.9375 C 111.417969 164.277344 110.835938 164.570312 110.289062 164.878906 C 103.945312 167.949219 80.40625 180.023438 74.378906 193.011719 C 67.566406 207.742188 75.503906 218.28125 80.71875 219.722656 C 96.988281 224.128906 113.089844 216.429688 122.035156 203.414062 C 130.984375 190.394531 129.90625 173.398438 125.78125 165.652344 C 125.738281 165.539062 125.660156 165.460938 125.617188 165.347656 C 127.253906 164.394531 128.921875 163.433594 130.597656 162.484375 C 133.828125 160.617188 136.980469 158.917969 139.746094 157.433594 C 138.183594 161.535156 137.058594 166.480469 136.46875 173.613281 C 135.773438 181.964844 139.304688 192.765625 143.898438 197.023438 C 145.925781 198.886719 148.371094 198.933594 149.882812 198.933594 C 155.257812 198.933594 157.671875 194.605469 160.347656 189.4375 C 163.652344 183.132812 166.574219 175.8125 166.574219 175.8125 C 166.574219 175.8125 162.925781 195.617188 172.933594 195.617188 C 176.589844 195.617188 180.25 191.027344 181.886719 188.675781 L 181.886719 188.707031 C 181.886719 188.707031 181.949219 188.5625 182.148438 188.253906 C 182.539062 187.683594 182.730469 187.347656 182.730469 187.347656 L 182.730469 187.234375 C 184.210938 184.769531 187.449219 179.113281 192.316406 169.777344 C 198.621094 157.710938 204.644531 142.632812 204.644531 142.632812 C 205.226562 145.945312 206.03125 149.214844 207.0625 152.417969 C 208.148438 156.023438 210.457031 159.972656 212.285156 163.808594 C 210.808594 165.78125 209.902344 166.914062 209.902344 166.914062 C 209.902344 166.949219 209.925781 166.980469 209.949219 166.996094 C 208.777344 168.511719 207.449219 170.136719 206.089844 171.738281 C 201.105469 177.511719 195.183594 184.125 194.410156 186.023438 C 193.472656 188.257812 193.710938 189.925781 195.496094 191.214844 C 196.816406 192.203125 199.171875 192.351562 201.613281 192.171875 C 206.089844 191.863281 209.242188 190.796875 210.761719 190.117188 C 213.558594 189.136719 216.203125 187.792969 218.609375 186.105469 C 223.476562 182.609375 226.445312 177.59375 226.167969 170.992188 C 226.011719 167.347656 224.792969 163.695312 223.316406 160.28125 C 223.746094 159.675781 224.222656 159.035156 224.644531 158.390625 C 232.351562 147.421875 238.304688 135.382812 238.304688 135.382812 C 238.882812 138.695312 239.691406 141.964844 240.71875 145.171875 C 241.660156 148.246094 243.488281 151.621094 245.164062 154.925781 C 237.929688 160.660156 233.441406 167.308594 231.878906 171.671875 C 228.996094 179.757812 231.269531 183.390625 235.511719 184.226562 C 237.421875 184.609375 240.136719 183.746094 242.164062 182.917969 C 245.167969 181.9375 248 180.515625 250.566406 178.695312 C 255.433594 175.199219 260.144531 170.308594 259.828125 163.664062 C 259.710938 160.664062 258.863281 157.664062 257.734375 154.78125 C 263.847656 152.28125 271.78125 150.914062 281.902344 152.046875 C 303.578125 154.515625 307.828125 167.726562 307.011719 173.226562 C 306.199219 178.734375 301.640625 181.8125 300.121094 182.722656 C 298.601562 183.632812 298.136719 183.976562 298.253906 184.664062 C 298.445312 185.648438 299.140625 185.609375 300.429688 185.375 C 302.222656 185.070312 311.789062 180.898438 312.21875 170.683594 C 312.84375 157.785156 300.132812 143.597656 277.605469 143.699219 L 277.574219 143.699219 C 269.753906 143.703125 262.042969 145.453125 255.027344 148.828125 C 252.726562 144.3125 250.347656 140.363281 249.964844 137.40625 C 249.5 133.949219 249.003906 131.902344 249.542969 127.8125 C 250.09375 123.710938 252.539062 117.894531 252.496094 117.472656 C 252.453125 117.058594 251.949219 114.972656 246.933594 114.933594 C 241.917969 114.890625 237.585938 115.882812 237.085938 117.164062 C 236.199219 119.527344 235.507812 121.945312 235.027344 124.414062 C 234.128906 128.851562 224.984375 144.726562 219.8125 153 C 218.101562 149.769531 216.664062 146.929688 216.355469 144.652344 C 215.890625 141.199219 215.378906 139.152344 215.917969 135.058594 C 216.464844 130.957031 218.929688 125.144531 218.886719 124.722656 C 218.84375 124.308594 218.339844 122.222656 213.324219 122.179688 C 208.308594 122.140625 203.96875 123.128906 203.460938 124.414062 C 202.953125 125.707031 202.40625 128.738281 201.402344 131.660156 C 200.386719 134.585938 188.207031 161.019531 185.019531 167.886719 C 183.382812 171.382812 181.976562 174.191406 180.964844 176.089844 C 180.804688 176.394531 180.695312 176.585938 180.621094 176.734375 C 180.738281 176.546875 180.816406 176.355469 180.816406 176.429688 C 179.960938 178.0625 179.453125 178.96875 179.453125 178.96875 L 179.453125 179 C 178.789062 180.21875 178.050781 181.332031 177.703125 181.332031 C 177.46875 181.332031 176.960938 178.140625 177.816406 173.777344 C 179.644531 164.589844 183.972656 150.3125 183.929688 149.8125 C 183.890625 149.550781 184.730469 147.078125 181.078125 145.753906 C 177.53125 144.503906 176.265625 146.59375 175.949219 146.59375 C 175.636719 146.59375 175.398438 147.355469 175.398438 147.355469 C 175.398438 147.355469 179.316406 131.257812 167.839844 131.257812 C 160.671875 131.257812 150.703125 138.925781 145.8125 145.867188 C 142.738281 147.5 136.082031 151.035156 129.074219 154.796875 C 126.390625 156.238281 123.636719 157.71875 121.027344 159.117188 C 120.835938 158.925781 120.675781 158.742188 120.476562 158.550781 C 106.539062 144.046875 80.816406 133.792969 81.902344 114.316406 C 82.292969 107.21875 84.835938 88.589844 131.375 65.960938 C 169.53125 47.4375 200.027344 52.515625 205.277344 63.824219 C 212.828125 79.960938 188.964844 109.992188 149.347656 114.316406 C 134.25 115.949219 127.292969 109.585938 125.308594 107.457031 C 123.25 105.222656 122.925781 105.101562 122.148438 105.515625 C 120.859375 106.195312 121.683594 108.175781 122.148438 109.351562 C 123.316406 112.347656 128.523438 117.046875 136.808594 119.707031 C 144.09375 122.023438 160.816406 123.972656 182.226562 115.886719 C 206.28125 106.851562 224.652344 82.300781 219.164062 61.234375 C 215.667969 47.851562 200.152344 40.097656 180.589844 39.070312 Z M 167.824219 140.753906 C 168.433594 140.800781 168.886719 141.023438 169.136719 141.449219 C 170.5 143.695312 164.40625 160.21875 162.84375 163.9375 C 160.351562 169.902344 155.09375 185.09375 151.894531 184.292969 C 149.171875 183.613281 147.492188 172.027344 151.34375 160.636719 C 153.289062 154.90625 157.417969 148.074219 159.875 145.414062 C 162.824219 142.195312 166 140.621094 167.824219 140.753906 Z M 248.714844 159.488281 C 249.171875 160.816406 249.414062 162.207031 249.445312 163.597656 C 249.40625 172.148438 243.144531 175.328125 239.375 176.65625 C 238.59375 176.125 238.695312 174.335938 241.304688 168.792969 C 242.316406 166.628906 244.664062 162.984375 248.714844 159.488281 Z M 117.960938 168.90625 C 121.191406 180.445312 118.082031 190.625 110.53125 198.640625 C 103.375 206.273438 93.328125 209.160156 89.007812 206.730469 C 84.375 204.105469 86.207031 192.863281 95.042969 184.730469 C 100.414062 179.792969 107.351562 175.242188 111.945312 172.433594 C 113 171.828125 114.503906 170.914062 116.371094 169.8125 C 116.6875 169.621094 116.84375 169.550781 116.84375 169.550781 C 117.191406 169.328125 117.570312 169.136719 117.960938 168.90625 Z M 215.773438 170.230469 C 215.773438 170.421875 215.820312 170.625 215.820312 170.847656 C 215.769531 177.640625 209.0625 182.226562 206.023438 184.050781 L 206.054688 184.050781 L 206.054688 184.066406 C 205 184.59375 204.023438 184.929688 203.558594 184.664062 C 203.210938 184.472656 203.996094 183.757812 203.996094 183.757812 C 203.996094 183.757812 209.40625 178.089844 211.539062 175.507812 C 212.785156 173.992188 214.21875 172.203125 215.773438 170.230469 Z M 215.773438 170.230469 "/></g></g></svg>